{
  "accessors": [
    {
      "bufferView": 2,
      "componentType": 5126,
      "count": 34880,
      "max": [
        5.077564239501953,
        3.3069381713867188,
        5.077564239501953
      ],
      "min": [
        -5.077564239501953,
        -3.903865098953247,
        -5.077564239501953
      ],
      "type": "VEC3"
    },
    {
      "bufferView": 2,
      "byteOffset": 418560,
      "componentType": 5126,
      "count": 34880,
      "max": [
        1.0,
        0.7271274328231812,
        1.0
      ],
      "min": [
        -1.0,
        -1.0,
        -1.0
      ],
      "type": "VEC3"
    },
    {
      "bufferView": 1,
      "componentType": 5126,
      "count": 34880,
      "max": [
        1.0,
        1.0
      ],
      "min": [
        0.0,
        0.0
      ],
      "type": "VEC2"
    },
    {
      "bufferView": 0,
      "componentType": 5125,
      "count": 123276,
      "type": "SCALAR"
    },
    {
      "bufferView": 2,
      "byteOffset": 837120,
      "componentType": 5126,
      "count": 4609,
      "max": [
        3.213744878768921,
        -3.903864860534668,
        3.213744878768921
      ],
      "min": [
        -3.213744640350342,
        -4.853481292724609,
        -3.213744640350342
      ],
      "type": "VEC3"
    },
    {
      "bufferView": 2,
      "byteOffset": 892428,
      "componentType": 5126,
      "count": 4609,
      "max": [
        0.5741194486618042,
        -0.818771481513977,
        0.5741192698478699
      ],
      "min": [
        -0.5741193890571594,
        -1.0,
        -0.5741192698478699
      ],
      "type": "VEC3"
    },
    {
      "bufferView": 1,
      "byteOffset": 279040,
      "componentType": 5126,
      "count": 4609,
      "max": [
        1.0,
        0.927032470703125
      ],
      "min": [
        0.1459350436925888,
        0.072967529296875
      ],
      "type": "VEC2"
    },
    {
      "bufferView": 0,
      "byteOffset": 493104,
      "componentType": 5125,
      "count": 17664,
      "type": "SCALAR"
    },
    {
      "bufferView": 2,
      "byteOffset": 947736,
      "componentType": 5126,
      "count": 2098,
      "max": [
        11.0593843460083,
        30.689266204833984,
        11.0593843460083
      ],
      "min": [
        -11.0593843460083,
        4.990002155303955,
        -11.0593843460083
      ],
      "type": "VEC3"
    },
    {
      "bufferView": 2,
      "byteOffset": 972912,
      "componentType": 5126,
      "count": 2098,
      "max": [
        0.9997048377990723,
        0.9999999403953552,
        0.9997047781944275
      ],
      "min": [
        -0.9997047781944275,
        -1.0,
        -0.9997047781944275
      ],
      "type": "VEC3"
    },
    {
      "bufferView": 1,
      "byteOffset": 315912,
      "componentType": 5126,
      "count": 2098,
      "max": [
        1.0,
        1.0
      ],
      "min": [
        0.0,
        0.7514215707778931
      ],
      "type": "VEC2"
    },
    {
      "bufferView": 1,
      "byteOffset": 332696,
      "componentType": 5126,
      "count": 2098,
      "max": [
        1.0,
        1.0
      ],
      "min": [
        0.0,
        0.0
      ],
      "type": "VEC2"
    },
    {
      "bufferView": 0,
      "byteOffset": 563760,
      "componentType": 5125,
      "count": 11520,
      "type": "SCALAR"
    }
  ],
  "asset": {
    "extras": {
      "author": "mugislan (https://sketchfab.com/mugislan)",
      "license": "CC-BY-4.0 (http://creativecommons.org/licenses/by/4.0/)",
      "source": "https://sketchfab.com/3d-models/light-bulb-695995c32f194a81811c5e53fa872392",
      "title": "Light Bulb"
    },
    "generator": "Sketchfab-12.67.0",
    "version": "2.0"
  },
  "bufferViews": [
    {
      "buffer": 0,
      "byteLength": 609840,
      "name": "floatBufferViews",
      "target": 34963
    },
    {
      "buffer": 0,
      "byteLength": 349480,
      "byteOffset": 609840,
      "byteStride": 8,
      "name": "floatBufferViews",
      "target": 34962
    },
    {
      "buffer": 0,
      "byteLength": 998088,
      "byteOffset": 959320,
      "byteStride": 12,
      "name": "floatBufferViews",
      "target": 34962
    }
  ],
  "buffers": [
    {
      "byteLength": 1957408,
      "uri": "scene.bin"
    }
  ],
  "materials": [
    {
      "doubleSided": true,
      "name": "Silver_-_High_Reflection",
      "pbrMetallicRoughness": {
        "baseColorFactor": [
          0.10556041286686094,
          0.10556041286686094,
          0.10556041286686094,
          1.0
        ],
        "metallicFactor": 0.0,
        "roughnessFactor": 0.6
      }
    },
    {
      "doubleSided": true,
      "name": "material",
      "pbrMetallicRoughness": {
        "baseColorFactor": [
          0.04011232605020126,
          0.04011232605020126,
          0.04011232605020126,
          1.0
        ],
        "metallicFactor": 0.0,
        "roughnessFactor": 0.6
      }
    },
    {
      "alphaMode": "BLEND",
      "doubleSided": true,
      "emissiveFactor": [
        1.0,
        1.0,
        1.0
      ],
      "name": "Glas_002",
      "pbrMetallicRoughness": {
        "baseColorFactor": [
          1.0,
          1.0,
          1.0,
          0.021249961853027344
        ],
        "metallicFactor": 0.0,
        "roughnessFactor": 0.6
      }
    }
  ],
  "meshes": [
    {
      "name": "Polygon_1_Silver - High Reflection_0",
      "primitives": [
        {
          "attributes": {
            "NORMAL": 1,
            "POSITION": 0,
            "TEXCOORD_0": 2
          },
          "indices": 3,
          "material": 0,
          "mode": 4
        }
      ]
    },
    {
      "name": "Polygon_1_Mat_0",
      "primitives": [
        {
          "attributes": {
            "NORMAL": 5,
            "POSITION": 4,
            "TEXCOORD_0": 6
          },
          "indices": 7,
          "material": 1,
          "mode": 4
        }
      ]
    },
    {
      "name": "Rotace_Glas 002_0",
      "primitives": [
        {
          "attributes": {
            "NORMAL": 9,
            "POSITION": 8,
            "TEXCOORD_0": 10,
            "TEXCOORD_1": 11
          },
          "indices": 12,
          "material": 2,
          "mode": 4
        }
      ]
    }
  ],
  "nodes": [
    {
      "children": [
        1
      ],
      "matrix": [
        1.0,
        0.0,
        0.0,
        0.0,
        0.0,
        2.220446049250313e-16,
        -1.0,
        0.0,
        0.0,
        1.0,
        2.220446049250313e-16,
        0.0,
        0.0,
        0.0,
        0.0,
        1.0
      ],
      "name": "Sketchfab_model"
    },
    {
      "children": [
        2
      ],
      "matrix": [
        1.0,
        0.0,
        0.0,
        0.0,
        0.0,
        0.0,
        1.0,
        0.0,
        0.0,
        -1.0,
        0.0,
        0.0,
        0.0,
        0.0,
        0.0,
        1.0
      ],
      "name": "c1e52d1d0a23406cbc0bee321cc85a42.fbx"
    },
    {
      "children": [
        3,
        6
      ],
      "name": "RootNode"
    },
    {
      "children": [
        4,
        5
      ],
      "matrix": [
        1.0,
        0.0,
        0.0,
        0.0,
        0.0,
        1.0,
        0.0,
        0.0,
        0.0,
        0.0,
        1.0,
        0.0,
        0.0,
        -6.709218978881836,
        0.0,
        1.0
      ],
      "name": "Polygon_1"
    },
    {
      "mesh": 0,
      "name": "Polygon_1_Silver - High Reflection_0"
    },
    {
      "mesh": 1,
      "name": "Polygon_1_Mat_0"
    },
    {
      "children": [
        7
      ],
      "matrix": [
        1.0,
        0.0,
        0.0,
        0.0,
        0.0,
        1.0,
        0.0,
        0.0,
        0.0,
        0.0,
        1.0,
        0.0,
        0.0,
        -8.496600151062012,
        0.0,
        1.0
      ],
      "name": "Rotace"
    },
    {
      "mesh": 2,
      "name": "Rotace_Glas 002_0"
    }
  ],
  "scene": 0,
  "scenes": [
    {
      "name": "Sketchfab_Scene",
      "nodes": [
        0
      ]
    }
  ]
}
